<svg xmlns="http://www.w3.org/2000/svg" viewBox="0 0 210 160">
  <defs>
    <linearGradient id="body" x1="0" x2="1" y1="0" y2="1">
      <stop offset="0" stop-color="#f4eee6"/>
      <stop offset=".55" stop-color="#c9ccc8"/>
      <stop offset="1" stop-color="#777f7f"/>
    </linearGradient>
    <filter id="shadow" x="-30%" y="-30%" width="160%" height="170%">
      <feDropShadow dx="0" dy="8" stdDeviation="7" flood-color="#00111f" flood-opacity=".55"/>
    </filter>
  </defs>
  <ellipse cx="99" cy="143" rx="79" ry="9" fill="#031322" opacity=".6"/>
  <g filter="url(#shadow)">
    <path d="M47 31h112c8 0 14 6 14 14v5H33v-5c0-8 6-14 14-14Z" fill="#e8dfd4"/>
    <path d="M42 48h124v13H42z" fill="#172734"/>
    <path d="M47 58h113c12 0 23 10 24 22l3 39H25l4-39c1-12 8-22 18-22Z" fill="url(#body)"/>
    <path d="M43 79h47c7 0 12 5 12 12v9H36v-14c0-4 3-7 7-7Z" fill="#263843"/>
    <rect x="115" y="77" width="34" height="18" rx="7" fill="#f3f5ef"/>
    <circle cx="53" cy="122" r="23" fill="#13212b"/>
    <circle cx="53" cy="122" r="13" fill="#f08214"/>
    <circle cx="154" cy="122" r="23" fill="#13212b"/>
    <circle cx="154" cy="122" r="13" fill="#f08214"/>
    <rect x="58" y="100" width="18" height="8" rx="4" fill="#f08b18"/>
    <rect x="128" y="98" width="16" height="8" rx="4" fill="#f08b18"/>
    <path d="M62 27V7M150 27V8" stroke="#2c3d47" stroke-width="4" stroke-linecap="round"/>
  </g>
</svg>
