<svg xmlns="http://www.w3.org/2000/svg" viewBox="0 0 180 210">
  <defs>
    <linearGradient id="skin" x1="0" x2="0" y1="0" y2="1">
      <stop offset="0" stop-color="#d49a62"/>
      <stop offset="1" stop-color="#925835"/>
    </linearGradient>
    <linearGradient id="shirt" x1="0" x2="1" y1="0" y2="1">
      <stop offset="0" stop-color="#2b4855"/>
      <stop offset="1" stop-color="#0b202d"/>
    </linearGradient>
    <linearGradient id="vest" x1="0" x2="1" y1="0" y2="1">
      <stop offset="0" stop-color="#d4d523"/>
      <stop offset="1" stop-color="#657b19"/>
    </linearGradient>
    <filter id="shadow" x="-30%" y="-20%" width="160%" height="150%">
      <feDropShadow dx="0" dy="8" stdDeviation="7" flood-color="#00111f" flood-opacity=".55"/>
    </filter>
  </defs>
  <ellipse cx="90" cy="196" rx="52" ry="9" fill="#031322" opacity=".55"/>
  <g filter="url(#shadow)">
    <path d="M53 88c-12 18-15 52-16 94h106c-1-42-5-76-16-94-18 10-56 10-74 0Z" fill="url(#shirt)"/>
    <path d="M58 93h64l16 89H42Z" fill="url(#vest)"/>
    <path d="M85 99h10v83H85z" fill="#f3d243"/>
    <path d="M52 128h76v10H52z" fill="#f3d243"/>
    <path d="M50 148c11 12 25 18 40 18s29-6 40-18" fill="none" stroke="#1a3241" stroke-width="18" stroke-linecap="round"/>
    <path d="M62 146c10 8 19 12 28 12s18-4 28-12" fill="none" stroke="#c7834f" stroke-width="11" stroke-linecap="round"/>
    <path d="M68 45c0-20 44-20 44 0v22c0 20-44 20-44 0Z" fill="url(#skin)"/>
    <path d="M70 46c6-14 33-14 40 0 0-22-40-24-40 0Z" fill="#4d321f"/>
    <path d="M78 63c7 7 18 7 25 0" fill="none" stroke="#5f3823" stroke-width="3" stroke-linecap="round"/>
    <path d="M62 39c4-21 52-21 56 0v12H62Z" fill="#e7e1d7"/>
    <path d="M56 48h68v10H56z" fill="#c5c2ba"/>
    <path d="M88 21h5v32h-5z" fill="#f7f4ed"/>
  </g>
</svg>
