<svg xmlns="http://www.w3.org/2000/svg" viewBox="0 0 180 210">
  <defs>
    <linearGradient id="skin" x1="0" x2="0" y1="0" y2="1">
      <stop offset="0" stop-color="#d9a06a"/>
      <stop offset="1" stop-color="#9a603a"/>
    </linearGradient>
    <linearGradient id="jacket" x1="0" x2="1" y1="0" y2="1">
      <stop offset="0" stop-color="#213947"/>
      <stop offset="1" stop-color="#0c1f2e"/>
    </linearGradient>
    <linearGradient id="vest" x1="0" x2="1" y1="0" y2="1">
      <stop offset="0" stop-color="#ff9b1a"/>
      <stop offset="1" stop-color="#c55512"/>
    </linearGradient>
    <filter id="shadow" x="-30%" y="-20%" width="160%" height="150%">
      <feDropShadow dx="0" dy="8" stdDeviation="7" flood-color="#00111f" flood-opacity=".55"/>
    </filter>
  </defs>
  <ellipse cx="90" cy="196" rx="49" ry="9" fill="#031322" opacity=".55"/>
  <g filter="url(#shadow)">
    <path d="M56 83c-13 18-18 53-19 99h106c-1-46-6-81-19-99-17 11-51 11-68 0Z" fill="url(#jacket)"/>
    <path d="M63 90h54l14 92H49Z" fill="url(#vest)"/>
    <path d="M85 92h10v90H85z" fill="#fed044"/>
    <path d="M50 130h80v10H50z" fill="#fed044"/>
    <path d="M40 96c-8 21-9 55-3 86h27c-4-35-3-62 6-91Z" fill="#1d3341"/>
    <path d="M140 96c8 21 9 55 3 86h-27c4-35 3-62-6-91Z" fill="#1d3341"/>
    <path d="M68 45c0-20 44-20 44 0v22c0 20-44 20-44 0Z" fill="url(#skin)"/>
    <path d="M70 46c7-14 33-14 40 0 0-22-40-24-40 0Z" fill="#51321f"/>
    <path d="M78 63c7 7 18 7 25 0" fill="none" stroke="#5f3823" stroke-width="3" stroke-linecap="round"/>
    <path d="M62 40c3-25 53-25 56 0v10H62Z" fill="#f7b424"/>
    <path d="M56 48h68v10H56z" fill="#d97b0e"/>
    <path d="M88 20h5v33h-5z" fill="#ffcf42"/>
  </g>
</svg>
